<?xml version="1.0" encoding="utf-8"?>
<!-- Generator: Adobe Illustrator 26.0.2, SVG Export Plug-In . SVG Version: 6.00 Build 0)  -->
<svg version="1.1" id="Layer_1" xmlns="http://www.w3.org/2000/svg" xmlns:xlink="http://www.w3.org/1999/xlink" x="0px" y="0px"
	 viewBox="0 0 225.6 104.7" style="enable-background:new 0 0 225.6 104.7;" xml:space="preserve">
<style type="text/css">
	.st0{fill:#F04A24;}
</style>
<g>
	<path d="M72.2,1.9C70.7,0.6,68.8,0,66.6,0c-1.5,0-3,0.3-4.3,1c-1.5,0.7-2.8,2.1-4,4l-21,33.6l-21-33.6c-1.2-2-2.5-3.3-4-4.1
		C11,0.3,9.6,0,8.1,0c-2.2,0-4,0.6-5.6,1.9C0.9,3.2,0,5.1,0,7.5c0,1.9,0.8,4,2.3,6.4l26.4,42.2v39.6c0,2.7,0.8,4.9,2.4,6.5
		c1.6,1.6,3.7,2.5,6.3,2.5s4.7-0.8,6.3-2.5c1.6-1.6,2.4-3.8,2.4-6.5V56.1l26.3-42.2c1.6-2.5,2.4-4.6,2.4-6.5
		C74.7,5.2,73.8,3.2,72.2,1.9z"/>
	<path d="M141.6,27L141.6,27c-3.6-2.5-7.3-2.4-10.6,0.1c-1.1,0.8-2.4,2.3-2.8,5c-1.9-1.6-3.8-2.9-5.8-4c-3.5-1.9-7.7-2.9-12.4-2.9
		c-5.6,0-10.7,1.1-15.1,3.3c-4.4,2.2-8.1,5.2-11.1,8.9c-3,3.7-5.3,8-6.8,12.7c-1.5,4.7-2.3,9.7-2.3,14.7c0,5.1,0.8,10,2.3,14.7
		c1.5,4.7,3.8,9,6.8,12.7c3,3.7,6.7,6.7,11.1,8.9c4.4,2.2,9.5,3.3,15.1,3.3c4.4,0,8.5-1,12.3-3c2.1-1.1,4-2.5,5.9-4.2
		c0.3,2.9,1.7,4.5,2.9,5.3c1.7,1.2,3.5,1.8,5.3,1.8c1.7,0,3.5-0.6,5.2-1.8c1.4-1,3-2.9,3-6.6V33.6C144.6,29.9,142.9,28,141.6,27z
		 M110,40.8c3.3,0,6.1,0.7,8.3,2.1c2.2,1.4,4.1,3.3,5.5,5.5c1.5,2.3,2.5,4.9,3.2,7.8c0.7,2.9,1,5.9,1,8.7c0,2.9-0.3,5.8-1,8.8
		c-0.6,2.8-1.7,5.4-3.2,7.8c-1.4,2.3-3.3,4.1-5.5,5.5c-2.2,1.4-4.9,2.1-8.3,2.1c-3.2,0-6-0.7-8.2-2.1c-2.3-1.4-4.2-3.3-5.6-5.5
		c-1.5-2.3-2.5-4.9-3.2-7.8c-0.7-2.9-1-5.9-1-8.8c0-2.9,0.3-5.8,1-8.7c0.6-2.8,1.7-5.4,3.2-7.8c1.4-2.2,3.3-4.1,5.6-5.5
		C104,41.5,106.8,40.8,110,40.8z"/>
	<path d="M164.5,25.2c-2.6,0-4.7,0.8-6.3,2.5c-1.6,1.6-2.4,3.8-2.4,6.5v61.6c0,2.7,0.8,4.9,2.4,6.5c1.6,1.6,3.7,2.5,6.3,2.5
		c2.6,0,4.7-0.8,6.3-2.5c1.6-1.6,2.4-3.8,2.4-6.5V34.1c0-2.7-0.8-4.9-2.4-6.5C169.1,26,167,25.2,164.5,25.2z"/>
	<path class="st0" d="M164.5,0c-2.8,0-5.2,1-7.2,2.9c-1.9,1.9-2.9,4.3-2.9,7.2c0,2.8,1,5.2,2.9,7.2c1.9,1.9,4.3,2.9,7.2,2.9
		c2.8,0,5.2-1,7.2-2.9c1.9-1.9,2.9-4.3,2.9-7.2c0-2.8-1-5.2-2.9-7.2C169.7,1,167.3,0,164.5,0z"/>
	<path d="M223.1,27.7L223.1,27.7c-1.7-1.7-4-2.5-6.8-2.5c-2.1,0-4.2,0.5-6.3,1.4c-1.9,0.9-3.7,2-5.4,3.4c-1.1,0.9-2.1,1.9-3,3
		c-0.2-2.1-1-3.9-2.3-5.3c-1.6-1.6-3.7-2.5-6.3-2.5c-2.6,0-4.7,0.8-6.3,2.5c-1.6,1.6-2.4,3.8-2.4,6.5v61.6c0,2.7,0.8,4.9,2.4,6.5
		c1.6,1.6,3.7,2.5,6.3,2.5c2.6,0,4.7-0.8,6.3-2.5c1.6-1.6,2.4-3.8,2.4-6.5V61.1c0-3.2,0.5-5.9,1.3-8.1c0.9-2.2,2-4,3.4-5.4
		c1.3-1.4,2.8-2.5,4.4-3.2c1.8-0.8,3.4-1.3,5-1.5c8.1-1.4,9.8-5.7,9.8-9C225.6,31.5,224.8,29.3,223.1,27.7z"/>
</g>
</svg>
